<svg width="72" height="72" viewBox="0 0 72 72" fill="none" xmlns="http://www.w3.org/2000/svg">
<g id="IC_Change Password">
<g id="Icon/notification Copy">
<circle id="Oval" cx="36" cy="36" r="36" fill="#3375E7"/>
</g>
<g id="lock">
<path id="Path" fill-rule="evenodd" clip-rule="evenodd" d="M29.4677 27.7742V22.5484C29.4677 19.0268 32.3332 16.1613 35.8548 16.1613C39.3765 16.1613 42.2419 19.0268 42.2419 22.5484V27.7742H43.4032V22.5484C43.4032 18.3863 40.0169 15 35.8548 15C31.6928 15 28.3065 18.3863 28.3065 22.5484V27.7742H29.4677Z" fill="white"/>
<path id="Shape" fill-rule="evenodd" clip-rule="evenodd" d="M23.6613 28.9358H48.0484C48.69 28.9358 49.2097 29.4555 49.2097 30.0971V49.839C49.2097 50.4806 48.69 51.0003 48.0484 51.0003H23.6613C23.0197 51.0003 22.5 50.4806 22.5 49.839V30.0971C22.5 29.4555 23.0197 28.9358 23.6613 28.9358ZM36.4355 45.1939V41.6577C38.0828 41.3808 39.3387 39.9518 39.3387 38.2261C39.3387 36.3019 37.7791 34.7422 35.8548 34.7422C33.9306 34.7422 32.371 36.3019 32.371 38.2261C32.371 39.9518 33.6269 41.3808 35.2742 41.6577V45.1939H36.4355Z" fill="white"/>
</g>
</g>
</svg>
