<svg id="Capa_1" enable-background="new 0 0 507.48 507.48" height="512" viewBox="0 0 507.48 507.48" width="512" xmlns="http://www.w3.org/2000/svg"><g><path d="m378.08 319.61 15.02 151.42-139.36-61.08-.28.12-24.196-145.908 24.196-221.562.28-.48 76.85 131.33 148.64 32.5z" fill="#5f55ae"/><path d="m253.46 42.6v367.47l-139.08 60.96 15.03-151.42-101.16-113.66 148.65-32.5z" fill="#6e76e4"/><path d="m377.049 462.613-.964-23.696c0-39.162-20.233-75.679-53.831-97.157l-22.808-14.592-5.104-3.271h-40.879l-30.127 97.132 30.127-5.459z" fill="#e40058"/><path d="m184.672 341.76c-33.598 21.478-53.831 57.996-53.831 97.157v23.518l122.622-46.865v-91.673h-40.879z" fill="#ff6379"/><path d="m393.65 324.67 16.91 170.39-156.82-68.73-.28.12-7.899-7.86 7.899-24.9.28-.12 121.91 53.43-13.15-132.45 88.49-99.42-130.03-28.43-67.22-114.88-.28.48-14.24-18.095 14.24-41.305.28-.48 86.47 147.78 167.27 36.57z" fill="#fb3"/><path d="m330.618 264.154c0 25.899-12.755 48.825-32.336 62.82-12.621 9.021-28.094 14.338-44.807 14.338l-29.356-85.858 29.356-68.443c16.713 0 32.186 5.317 44.807 14.338 19.581 13.995 32.336 36.922 32.336 62.805z" fill="#ffccbd"/><path d="m253.475 187.011v154.301c-42.612 0-77.143-34.546-77.143-77.158 0-42.597 34.531-77.143 77.143-77.143z" fill="#ffddce"/><path d="m253.46 72.3v-59.4l-86.19 147.3-167.27 36.57 113.83 127.9-16.91 170.39 156.54-68.61v-32.76l-121.62 53.31 13.14-132.45-88.48-99.42 130.02-28.43z" fill="#ffd944"/></g></svg>