<svg width="32" height="32" viewBox="0 0 32 32" fill="none" xmlns="http://www.w3.org/2000/svg">
<path d="M7.41878 7.85244H6.74723C5.97269 7.85333 5.35155 8.45507 5.35077 9.1891C5.35077 9.18913 5.35077 9.18916 5.35077 9.1892M7.41878 7.85244L5.25077 9.1891L5.35077 9.1892M7.41878 7.85244C7.6415 8.89527 8.59727 9.64605 9.70691 9.64605C10.8167 9.64605 11.7725 8.89528 11.9952 7.85244H19.972C20.1947 8.89528 21.1507 9.64605 22.2603 9.64605C23.3699 9.64605 24.3259 8.89529 24.5484 7.85244H25.22C25.9949 7.85333 26.6157 8.45493 26.6166 9.18903V12.3808H5.35077M7.41878 7.85244L5.35077 12.3808M5.35077 9.1892L5.35077 12.3808M5.35077 9.1892L5.35077 12.3808M25.2201 6.45188H24.5967L24.5967 6.13553L24.5967 6.135C24.5901 4.89478 23.542 3.9 22.2603 3.9C20.9785 3.9 19.9307 4.89479 19.9237 6.13496V6.13553V6.45188H12.0437L12.0437 6.13553L12.0437 6.135C12.0371 4.89478 10.989 3.9 9.70731 3.9C8.42555 3.9 7.37771 4.89479 7.37072 6.13496V6.13553V6.45188L6.74712 6.45188L6.74701 6.45188C5.17943 6.45363 3.90183 7.67421 3.9 9.18879V9.18891L3.9 25.363L3.9 25.3631C3.90183 26.8777 5.17943 28.0983 6.74701 28.1H6.74712H25.2201H25.2202C26.788 28.0983 28.0656 26.8777 28.0674 25.3631V25.363V13.288C28.1109 13.1534 28.1109 13.0092 28.0674 12.8746V9.18891V9.18879C28.0656 7.6742 26.788 6.45363 25.2202 6.45188H25.2201ZM22.2603 5.28929C22.753 5.29002 23.1452 5.67207 23.1457 6.13564V7.39949C23.1418 7.85987 22.7502 8.23816 22.2599 8.23816C21.7698 8.23816 21.3783 7.85989 21.3743 7.39943V6.13564C21.3748 5.6721 21.7671 5.28987 22.2603 5.28929ZM8.8213 7.39937V6.13596C8.82534 5.67507 9.21684 5.2968 9.70691 5.2968C10.1972 5.2968 10.5885 5.67504 10.5927 6.13597V7.39937C10.5885 7.8599 10.1972 8.23816 9.70691 8.23816C9.21681 8.23816 8.82534 7.85986 8.8213 7.39937ZM25.22 26.6994H6.74723C5.9727 26.6986 5.35173 26.097 5.35077 25.3629C5.35077 25.3629 5.35077 25.3629 5.35077 25.3628L5.35077 13.7814H26.6166V25.3628C26.6157 26.0969 25.9949 26.6986 25.22 26.6994Z" fill="#696969" stroke="#696969" stroke-width="0.2"/>
</svg>
